<svg width="12" height="12" viewBox="0 0 12 12" fill="none" xmlns="http://www.w3.org/2000/svg">
<path fill-rule="evenodd" clip-rule="evenodd" d="M11.7364 11.7364C11.3849 12.0879 10.8151 12.0879 10.4636 11.7364L1.8 3.07279V9.9C1.8 10.3971 1.39706 10.8 0.900001 10.8C0.402945 10.8 7.15256e-07 10.3971 7.15256e-07 9.9V0.900001C7.15256e-07 0.402945 0.402945 7.15256e-07 0.900001 7.15256e-07H9.9C10.3971 7.15256e-07 10.8 0.402945 10.8 0.900001C10.8 1.39706 10.3971 1.8 9.9 1.8H3.07279L11.7364 10.4636C12.0879 10.8151 12.0879 11.3849 11.7364 11.7364Z" fill="#00A25F"/>
</svg>
