<svg width="20" height="21" viewBox="0 0 20 21" fill="none" xmlns="http://www.w3.org/2000/svg">
<path d="M15.625 11.125L16.875 11.125C17.2202 11.125 17.5 10.8452 17.5 10.5C17.5 10.1548 17.2202 9.875 16.875 9.875L15.625 9.87501C15.2798 9.87502 15 10.1548 15 10.5C15 10.8452 15.2798 11.125 15.625 11.125Z" fill="#262626"/>
<path d="M10 5.5C10 5.15482 10.2798 4.875 10.625 4.875L16.875 4.87501C17.2202 4.87501 17.5 5.15484 17.5 5.50001C17.5 5.84519 17.2202 6.12501 16.875 6.12501L10.625 6.125C10.2798 6.125 10 5.84518 10 5.5Z" fill="#262626"/>
<path d="M10 15.5C10 15.1548 10.2798 14.875 10.625 14.875L16.875 14.875C17.2202 14.875 17.5 15.1548 17.5 15.5C17.5 15.8452 17.2202 16.125 16.875 16.125L10.625 16.125C10.2798 16.125 10 15.8452 10 15.5Z" fill="#262626"/>
<path d="M3.12501 6.12501L4.37501 6.125C4.72018 6.125 5 5.84517 5 5.49999C5 5.15482 4.72017 4.875 4.37499 4.875L3.12499 4.87501C2.77982 4.87502 2.5 5.15484 2.5 5.50002C2.5 5.8452 2.77983 6.12502 3.12501 6.12501Z" fill="#262626"/>
<path d="M4.37501 16.125L3.12501 16.125C2.77983 16.125 2.5 15.8452 2.5 15.5C2.5 15.1548 2.77982 14.875 3.12499 14.875L4.37499 14.875C4.72017 14.875 5 15.1548 5 15.5C5 15.8452 4.72018 16.125 4.37501 16.125Z" fill="#262626"/>
<path d="M2.5 10.5C2.5 10.1548 2.77982 9.875 3.125 9.875H9.375C9.72018 9.875 10 10.1548 10 10.5C10 10.8452 9.72018 11.125 9.375 11.125H3.125C2.77982 11.125 2.5 10.8452 2.5 10.5Z" fill="#262626"/>
<path d="M7.5 3.625C6.46447 3.625 5.625 4.46447 5.625 5.5C5.625 6.53553 6.46447 7.375 7.5 7.375C8.53553 7.375 9.375 6.53553 9.375 5.5C9.375 4.46447 8.53553 3.625 7.5 3.625Z" fill="#262626"/>
<path d="M10.625 10.5C10.625 9.46447 11.4645 8.625 12.5 8.625C13.5355 8.625 14.375 9.46447 14.375 10.5C14.375 11.5355 13.5355 12.375 12.5 12.375C11.4645 12.375 10.625 11.5355 10.625 10.5Z" fill="#262626"/>
<path d="M7.5 13.625C6.46447 13.625 5.625 14.4645 5.625 15.5C5.625 16.5355 6.46447 17.375 7.5 17.375C8.53553 17.375 9.375 16.5355 9.375 15.5C9.375 14.4645 8.53553 13.625 7.5 13.625Z" fill="#262626"/>
</svg>
