<svg width="22" height="22" viewBox="0 0 22 22" fill="none" xmlns="http://www.w3.org/2000/svg">
<path fill-rule="evenodd" clip-rule="evenodd" d="M0.913127 6.84104C1.30772 7.20744 1.92463 7.1846 2.29104 6.79L4.82657 4.05944V15.2266C4.82657 15.765 5.26309 16.2016 5.80157 16.2016C6.34004 16.2016 6.77657 15.765 6.77657 15.2266V4.05944L9.31209 6.79C9.6785 7.18459 10.2954 7.20744 10.69 6.84104C11.0846 6.47463 11.1074 5.85772 10.741 5.46312L6.51604 0.913123C6.33156 0.71445 6.07268 0.601563 5.80157 0.601562C5.53045 0.601562 5.27157 0.71445 5.08709 0.913123L0.862093 5.46312C0.495685 5.85772 0.518534 6.47463 0.913127 6.84104ZM11.3131 15.1621C10.9185 15.5285 10.8957 16.1454 11.2621 16.54L15.4871 21.09C15.6716 21.2887 15.9304 21.4016 16.2016 21.4016C16.4727 21.4016 16.7316 21.2887 16.916 21.09L21.141 16.54C21.5074 16.1454 21.4846 15.5285 21.09 15.1621C20.6954 14.7957 20.0785 14.8185 19.7121 15.2131L17.1766 17.9437V6.77656C17.1766 6.23809 16.74 5.80156 16.2016 5.80156C15.6631 5.80156 15.2266 6.23809 15.2266 6.77656V17.9437L12.691 15.2131C12.3246 14.8185 11.7077 14.7957 11.3131 15.1621Z" fill="#EDC40D"/>
</svg>
